<svg width="13px" height="14px" viewBox="0 0 13 14" version="1.1" xmlns="http://www.w3.org/2000/svg" xmlns:xlink="http://www.w3.org/1999/xlink">
    <g id="Dashboard" stroke="none" stroke-width="1" fill="none" fill-rule="evenodd">
        <g id="Documents" transform="translate(-1095.000000, -143.000000)" fill="#7B8794" fill-rule="nonzero">
            <g transform="translate(166.000000, 116.000000)" id="Header">
                <g transform="translate(19.000000, 16.000000)">
                    <g id="Search" transform="translate(784.000000, 0.000000)">
                        <g id="zoom-2" transform="translate(126.000000, 11.000000)">
                            <path d="M10.31875,9.18125 C11.05,8.20625 11.45625,7.06875 11.45625,5.76875 C11.45625,2.6 8.9375,0 5.76875,0 C2.6,0 0,2.6 0,5.76875 C0,8.9375 2.6,11.5375 5.76875,11.5375 C7.06875,11.5375 8.2875,11.13125 9.18125,10.4 L11.61875,12.8375 C11.78125,13 12.025,13.08125 12.1875,13.08125 C12.35,13.08125 12.59375,13 12.75625,12.8375 C13.08125,12.5125 13.08125,12.025 12.75625,11.7 L10.31875,9.18125 Z M5.76875,9.83125 C3.49375,9.83125 1.625,8.04375 1.625,5.76875 C1.625,3.49375 3.49375,1.625 5.76875,1.625 C8.04375,1.625 9.9125,3.49375 9.9125,5.76875 C9.9125,8.04375 8.04375,9.83125 5.76875,9.83125 Z" id="Shape"></path>
                        </g>
                    </g>
                </g>
            </g>
        </g>
    </g>
</svg>
